<svg width="37" height="37" viewBox="0 0 37 37" fill="none" xmlns="http://www.w3.org/2000/svg">
<g id="Group 48097591">
<g id="Group 906">
<circle id="Ellipse 35" cx="18.3928" cy="18.5" r="18" fill="#DFF3FF"/>
</g>
<g id="Group 48097589">
<g id="Group">
<path id="Vector" d="M15.9068 18.2224C16.36 18.6766 16.967 18.9444 17.6078 18.9729V19.515H17.6108C17.617 19.7848 17.8377 20.0001 18.1075 20.0001C18.3774 20.0001 18.5979 19.7848 18.6041 19.515H18.6071V18.9491C19.0482 18.9178 19.4614 18.7216 19.7648 18.3997C20.0679 18.0778 20.239 17.6537 20.2441 17.2114C20.2739 16.7495 20.1088 16.2963 19.7891 15.9617C19.4713 15.6948 19.0771 15.5355 18.6629 15.5068L17.9672 15.4077H17.9673C17.7661 15.3868 17.5758 15.3058 17.4212 15.1752C17.3071 15.0647 17.2441 14.9115 17.2475 14.7526C17.2475 14.3484 17.5448 14.0085 18.1573 14.0085C18.5985 13.9745 19.0346 14.1204 19.3665 14.4128L19.3677 14.4115V14.4116C19.4638 14.5113 19.5964 14.5675 19.7348 14.5675C19.8733 14.5675 20.0057 14.5113 20.102 14.4116C20.1981 14.312 20.2496 14.1776 20.2448 14.0393C20.2398 13.9009 20.179 13.7705 20.0759 13.6779C19.6759 13.2992 19.1566 13.0715 18.607 13.034V12.4725C18.5859 12.2105 18.3703 12.0068 18.1076 12.0002C17.8467 12.0009 17.6292 12.2003 17.6059 12.4603L17.6079 13.0705V13.0706C17.1944 13.1287 16.8166 13.3362 16.5457 13.6539C16.2747 13.9716 16.1295 14.3776 16.1376 14.7951C16.113 15.223 16.2658 15.6421 16.5601 15.9536C16.8792 16.234 17.2795 16.4054 17.7025 16.4429L18.4142 16.542C18.606 16.5516 18.7895 16.6241 18.936 16.7483C19.0644 16.8807 19.1305 17.0615 19.118 17.2456C19.118 17.7169 18.754 17.9735 18.0745 17.9735C17.5582 18.0068 17.0501 17.8312 16.6642 17.4865C16.5675 17.3856 16.4344 17.3275 16.2946 17.325C16.1548 17.3227 16.0199 17.3759 15.9196 17.4733C15.8193 17.5708 15.762 17.7042 15.7605 17.844C15.7589 17.9838 15.8131 18.1184 15.9112 18.2181L15.9068 18.2224Z" fill="#4499FE"/>
<path id="Vector_2" d="M26.4877 15.7142L24.002 14.3332V12.0001C24.002 11.4695 23.7912 10.9609 23.4162 10.5858C23.0411 10.2108 22.5325 10 22.002 10H14.0022C13.4717 10 12.9631 10.2108 12.588 10.5858C12.213 10.9609 12.0022 11.4695 12.0022 12.0001V14.3332L9.51648 15.7142C9.36062 15.8008 9.23071 15.9275 9.14031 16.0812C9.04991 16.235 9.0022 16.41 9.0022 16.5884V25C9.0022 25.7957 9.31827 26.5588 9.88094 27.1213C10.4434 27.6839 11.2065 28 12.0022 28H24.0022C24.7979 28 25.5609 27.6839 26.1234 27.1213C26.6861 26.5588 27.0022 25.7957 27.0022 25V16.5884C27.0022 16.41 26.9545 16.235 26.8641 16.0812C26.7737 15.9275 26.6438 15.8008 26.4879 15.7142H26.4877ZM24.337 18.921L18.337 21.921C18.1262 22.0263 17.8779 22.0263 17.667 21.921L11.667 18.921C11.4891 18.8321 11.3538 18.6762 11.2907 18.4875C11.2277 18.2989 11.2423 18.093 11.331 17.915C11.4199 17.7371 11.5758 17.6016 11.7644 17.5387C11.9531 17.4757 12.159 17.4903 12.337 17.579L13.0019 17.9117V12C13.0023 11.7348 13.1077 11.4807 13.2952 11.2932C13.4827 11.1057 13.7369 11.0002 14.002 10.9999H22.0022H22.002C22.2672 11.0002 22.5213 11.1057 22.7088 11.2932C22.8963 11.4807 23.0018 11.7348 23.0021 12V17.9117L23.6671 17.5792V17.579C23.845 17.4903 24.0509 17.4757 24.2396 17.5387C24.4283 17.6016 24.5841 17.7371 24.673 17.915C24.7617 18.093 24.7763 18.2989 24.7134 18.4875C24.6502 18.6762 24.515 18.8321 24.337 18.921H24.337Z" fill="#4499FE"/>
</g>
</g>
</g>
</svg>
